<svg width="14.000000" height="14.000000" viewBox="0 0 14 14" fill="none" xmlns="http://www.w3.org/2000/svg" xmlns:xlink="http://www.w3.org/1999/xlink">
	<desc>
			Created with Pixso.
	</desc>
	<defs/>
	<rect id="Icon/edit" width="14.000000" height="14.000000" fill="#FFFFFF" fill-opacity="0"/>
	<path id="Stroke 1" d="M6.7 1.62L4.52 1.62C2.72 1.62 1.6 2.89 1.6 4.69L1.6 9.54C1.6 11.34 2.72 12.61 4.52 12.61L9.67 12.61C11.46 12.61 12.58 11.34 12.58 9.54L12.58 " stroke="#DDDDDD" stroke-opacity="1.000000" stroke-width="1.000000" stroke-linejoin="round" stroke-linecap="round"/>
	<path id="Stroke 3" d="M9.5 2.01C10.05 1.46 10.93 1.46 11.47 2.01L12.18 2.72C12.72 3.26 12.72 4.14 12.18 4.68L7.8 9.06C7.56 9.3 7.24 9.43 6.9 9.43L4.72 9.43L4.77 7.23C4.78 6.9 4.91 6.6 5.14 6.37L9.5 2.01Z" stroke="#DDDDDD" stroke-opacity="1.000000" stroke-width="1.000000" stroke-linejoin="round"/>
	<path id="Stroke 5" d="M8.84 2.68L11.5 " stroke="#DDDDDD" stroke-opacity="1.000000" stroke-width="1.000000" stroke-linejoin="round" stroke-linecap="round"/>
</svg>
